<svg width="16" height="16" viewBox="0 0 16 16" fill="none" xmlns="http://www.w3.org/2000/svg">
<g id="Phone Retro 1" clip-path="url(#clip0_2018_39)">
<path id="Vector" d="M2.85667 0.993326H2.84933C2.18275 1.14143 1.58663 1.5125 1.15947 2.04523C0.732316 2.57797 0.499679 3.24049 0.5 3.92333V4.51666C0.5 4.78188 0.605357 5.03623 0.792894 5.22377C0.98043 5.4113 1.23478 5.51666 1.5 5.51666H4C4.26522 5.51666 4.51957 5.4113 4.70711 5.22377C4.89464 5.03623 5 4.78188 5 4.51666C5 4.25144 5.10536 3.99709 5.29289 3.80955C5.48043 3.62202 5.73478 3.51666 6 3.51666H10C10.2652 3.51666 10.5196 3.62202 10.7071 3.80955C10.8946 3.99709 11 4.25144 11 4.51666C11 4.78188 11.1054 5.03623 11.2929 5.22377C11.4804 5.4113 11.7348 5.51666 12 5.51666H14.5C14.7652 5.51666 15.0196 5.4113 15.2071 5.22377C15.3946 5.03623 15.5 4.78188 15.5 4.51666V3.92333C15.5 3.24072 15.2672 2.57851 14.8401 2.04605C14.413 1.51358 13.817 1.14271 13.1507 0.994659H13.1433C9.74607 0.336539 6.2541 0.336086 2.85667 0.993326Z" stroke="#0C0C1E" stroke-width="1.5" stroke-linecap="round" stroke-linejoin="round"/>
<path id="Vector_2" d="M8.20332 7.51666H7.79999C6.33749 7.51659 4.92532 8.05068 3.8289 9.01856C2.73249 9.98644 2.02734 11.3214 1.84599 12.7727L1.78399 13.2687C1.74883 13.5501 1.77391 13.8357 1.85757 14.1067C1.94123 14.3777 2.08157 14.6277 2.26926 14.8403C2.45694 15.0529 2.6877 15.2232 2.94621 15.3398C3.20472 15.4564 3.48507 15.5167 3.76866 15.5167H12.2353C12.519 15.5165 12.7994 15.456 13.0579 15.3392C13.3164 15.2224 13.5471 15.052 13.7347 14.8392C13.9222 14.6264 14.0624 14.3761 14.1459 14.105C14.2293 13.8339 14.2541 13.5481 14.2187 13.2667L14.1567 12.7707C13.9749 11.3199 13.2696 9.98549 12.1734 9.01803C11.0772 8.05058 9.66541 7.51669 8.20332 7.51666Z" stroke="#0C0C1E" stroke-width="1.5" stroke-linecap="round" stroke-linejoin="round"/>
<path id="Vector_3" d="M6.5 7.658V6.01666" stroke="#0C0C1E" stroke-width="1.5" stroke-linecap="round" stroke-linejoin="round"/>
<path id="Vector_4" d="M9.5 7.658V6.01666" stroke="#0C0C1E" stroke-width="1.5" stroke-linecap="round" stroke-linejoin="round"/>
<path id="Vector_5" d="M6 11.5167C6 12.0471 6.21071 12.5558 6.58579 12.9309C6.96086 13.3059 7.46957 13.5167 8 13.5167C8.53043 13.5167 9.03914 13.3059 9.41421 12.9309C9.78929 12.5558 10 12.0471 10 11.5167C10 10.9862 9.78929 10.4775 9.41421 10.1024C9.03914 9.72738 8.53043 9.51666 8 9.51666C7.46957 9.51666 6.96086 9.72738 6.58579 10.1024C6.21071 10.4775 6 10.9862 6 11.5167Z" stroke="#0C0C1E" stroke-width="1.5" stroke-linecap="round" stroke-linejoin="round"/>
</g>
<defs>
<clipPath id="clip0_2018_39">
<rect width="16" height="16" fill="white"/>
</clipPath>
</defs>
</svg>
