<svg width="24" height="24" viewBox="0 0 24 24" fill="none" xmlns="http://www.w3.org/2000/svg">
<g id="Search" clip-path="url(#clip0_2018_71)">
<path id="Vector" d="M1.47204 13.3569C1.93756 14.4523 2.61426 15.4452 3.46351 16.2791C4.31276 17.1129 5.31794 17.7713 6.42164 18.2167C7.52534 18.662 8.70596 18.8857 9.89608 18.8748C11.0862 18.8638 12.2625 18.6186 13.3579 18.1531C14.4532 17.6876 15.4462 17.0109 16.28 16.1616C17.1138 15.3124 17.7722 14.3072 18.2176 13.2035C18.663 12.0998 18.8866 10.9192 18.8757 9.72907C18.8648 8.53895 18.6195 7.36263 18.154 6.26727C17.6885 5.17191 17.0118 4.17897 16.1626 3.34514C15.3133 2.5113 14.3081 1.85291 13.2044 1.40754C12.1007 0.962175 10.9201 0.73856 9.72999 0.749465C8.53986 0.760369 7.36354 1.00558 6.26819 1.47109C5.17283 1.93661 4.17989 2.61331 3.34606 3.46257C2.51223 4.31183 1.85383 5.317 1.40847 6.4207C0.963107 7.52441 0.739496 8.70502 0.750404 9.89515C0.761311 11.0853 1.00653 12.2616 1.47204 13.3569Z" stroke="black" stroke-width="1.5" stroke-linecap="round" stroke-linejoin="round"/>
<path id="Vector_2" d="M16.221 16.22L23.25 23.25" stroke="black" stroke-width="1.5" stroke-linecap="round" stroke-linejoin="round"/>
</g>
<defs>
<clipPath id="clip0_2018_71">
<rect width="24" height="24" fill="white"/>
</clipPath>
</defs>
</svg>
